<svg width="619" height="949" viewBox="0 0 619 949" fill="none" xmlns="http://www.w3.org/2000/svg">
<g clip-path="url(#clip0_50_36)">
<path d="M202.182 68.93C202.182 68.93 329.016 28.0066 417.433 80.0578C417.433 80.0578 425.856 8.70216 498.296 10.7943C570.756 12.8764 597.196 87.7998 559.466 146.138C559.466 146.138 551.326 162.541 521.312 168.595C521.312 168.595 552.81 223.861 568.383 274.083C585.491 329.206 585.612 383.138 579.179 426.001C572.756 468.835 532.592 539.463 516.525 554.967C516.525 554.967 623.494 711.202 617.212 821.328C617.212 821.328 615.798 831.678 611.91 846.08L611.88 846.11C611.88 846.171 611.849 846.222 611.849 846.282C611.849 846.343 611.819 846.393 611.789 846.484C611.759 846.596 611.728 846.747 611.678 846.889C608.577 856.541 591.672 873.258 590.601 874.309L590.54 874.37C591.348 881.01 592.045 887.529 592.651 893.937C590.046 898.374 587.178 902.659 584.057 906.631H26.358C25.9843 905.995 25.6006 905.388 25.2269 904.751C25.9843 894.725 27.0245 884.376 28.3273 873.773C28.3273 873.773 7.22033 856.268 3.14032 831.92V831.809C2.87775 829.495 2.64547 827.342 2.50408 825.371V825.341C1.77695 817.144 1.77695 812.07 1.77695 812.07C-4.50464 701.974 102.464 545.709 102.464 545.709C86.3968 530.205 46.7177 467.612 40.2846 424.779C33.8616 381.945 35.6087 322.354 49.7373 271.687C69.0769 202.252 97.6774 159.327 97.6774 159.327C67.6529 153.273 59.4929 136.869 59.4929 136.869C21.8134 78.5216 48.2426 3.60822 120.683 1.51606C120.683 1.51606 188.458 -0.343641 202.182 68.93Z" fill="#C18667" stroke="#191801" stroke-width="3" stroke-miterlimit="10"/>
<path d="M134.994 225.842C130.53 202.363 149.93 173.184 176.612 164.472C175.128 166.827 172.552 170.384 168.896 175.135C159.03 187.95 157.878 208.377 162.918 225.842H134.994Z" fill="#845E4D"/>
<path d="M224.299 164.563C243.144 170.283 260.868 183.968 265.958 203.728C266.715 206.184 267.281 210.186 267.301 212.106C269.371 225.427 267.392 239.254 261.928 251.534C253.789 269.423 237.832 285.241 217.705 289.476C202.354 292.73 186.367 289.668 172.017 283.886C167.816 282.148 163.665 280.278 159.797 277.863C154.909 274.558 150.667 270.353 147.102 265.714C140.801 257.457 136.549 247.653 134.751 237.424C131.954 222.264 132.994 205.779 141.104 192.347C147.678 181.28 157.929 172.648 169.492 167.181C171.815 166.15 174.158 165.038 176.662 164.563C175.41 164.805 174.239 165.331 173.067 165.816C155.868 173.457 141.235 188.415 136.943 207.073C134.66 216.847 135.115 227.186 137.054 236.97C139.962 251.554 147.779 265.573 159.807 274.497C179.864 287.03 209.403 293.266 231.056 281.592C251.415 270.272 264.463 248.714 265.907 225.407C266.19 221.051 266.099 216.604 265.443 212.359C265.332 206.911 263.787 201.332 261.585 196.309C254.788 180.673 240.003 170.162 224.31 164.553L224.299 164.563Z" fill="black"/>
<path d="M266.898 226.933C265.878 240.446 260.566 260.853 240.186 277.256C206.556 304.363 161.484 277.256 161.484 277.256C161.484 277.256 136.782 263.45 134.55 226.933H266.898Z" fill="white" stroke="black" stroke-width="3" stroke-miterlimit="10"/>
<path d="M233.934 226.943C233.238 229.753 225.35 254.111 201.001 254.465C176.653 254.819 167.503 226.943 167.503 226.943H233.934Z" fill="black" stroke="black" stroke-width="3" stroke-miterlimit="10"/>
<path d="M186.711 246.5C186.711 246.5 174.673 236.828 175.723 231.057H190.831C190.831 231.057 194.952 242.993 202.738 246.5H186.711Z" fill="white"/>
<path d="M360.616 223.608C356.152 200.129 375.553 170.95 402.234 162.238C400.75 164.593 398.174 168.151 394.519 172.901C384.652 185.717 383.501 206.143 388.54 223.608H360.616Z" fill="#845E4D"/>
<path d="M450.165 161.642C469.009 167.363 486.733 181.047 491.823 200.807C492.581 203.263 493.146 207.265 493.166 209.185C495.237 222.507 493.257 236.333 487.794 248.613C479.654 266.502 463.697 282.32 443.57 286.555C428.219 289.809 412.233 286.747 397.882 280.966C393.681 279.227 389.53 277.357 385.662 274.942C380.774 271.637 376.533 267.432 372.968 262.793C366.666 254.536 362.414 244.732 360.617 234.504C357.819 219.343 358.859 202.858 366.969 189.426C373.543 178.359 383.794 169.728 395.357 164.26C397.68 163.229 400.023 162.117 402.528 161.642C401.275 161.885 400.104 162.41 398.932 162.895C381.734 170.536 367.1 185.495 362.808 204.152C360.526 213.926 360.98 224.265 362.919 234.049C365.828 248.633 373.644 262.652 385.672 271.576C405.729 284.109 435.269 290.345 456.921 278.671C477.281 267.351 490.329 245.793 491.773 222.486C492.055 218.13 491.965 213.683 491.308 209.438C491.197 203.99 489.652 198.411 487.45 193.388C480.654 177.753 465.869 167.241 450.175 161.632L450.165 161.642Z" fill="black"/>
<path d="M492.762 224.022C491.742 237.536 486.43 257.942 466.05 274.345C432.42 301.452 387.348 274.345 387.348 274.345C387.348 274.345 362.646 260.539 360.414 224.022H492.762Z" fill="white" stroke="black" stroke-width="3" stroke-miterlimit="10"/>
<path d="M461.819 224.022C461.122 226.832 453.235 251.19 428.886 251.544C404.537 251.898 395.388 224.022 395.388 224.022H461.819Z" fill="black" stroke="black" stroke-width="3" stroke-miterlimit="10"/>
<path d="M414.959 243.58C414.959 243.58 402.921 233.907 403.971 228.136H419.079C419.079 228.136 423.2 240.072 430.986 243.58H414.959Z" fill="white"/>
<path d="M127.904 127.177C127.904 127.177 88.4572 129.845 80.3982 104.244C72.3392 78.6429 82.1453 64.2606 85.6497 57.9538C89.154 51.6369 106.747 38.3159 127.904 45.6839C149.062 53.0519 164.907 67.6263 165.917 94.1774L127.904 127.177Z" fill="black"/>
<path d="M455.729 98.9075C455.729 98.9075 454.325 76.7327 464.788 62.8456C476.583 47.1797 500.175 47.0685 513.839 53.0216C527.503 58.9847 537.309 71.6084 539.066 84.2321C540.813 96.8558 536.965 110.531 525.402 123.508C513.839 136.485 491.924 130.128 491.924 130.128L455.739 98.8974L455.729 98.9075Z" fill="black"/>
<path d="M458.688 666.549C458.688 666.549 499.428 709.17 503.932 718.155L458.688 666.549Z" fill="#C18667"/>
<path d="M458.688 666.549C469.606 675.888 479.492 686.298 488.895 697.133C494.328 703.773 500.206 710.343 503.932 718.155C500.559 713.658 496.348 709.504 492.571 705.33C480.977 692.766 469.171 680.082 458.688 666.549Z" fill="#191801"/>
<path d="M479.765 666.549C479.765 666.549 495.135 703.702 495.782 710.646L479.765 666.549Z" fill="#C18667"/>
<path d="M479.765 666.549C483.845 673.31 486.986 680.507 489.854 687.834C492.48 695.192 495.439 702.762 495.782 710.656C494.722 707.442 492.672 702.975 491.379 699.791C486.935 688.976 482.583 677.939 479.755 666.559L479.765 666.549Z" fill="#191801"/>
<path d="M133.732 662.688C133.732 662.688 118.098 701.681 113.493 707.371L133.732 662.688Z" fill="#C18667"/>
<path d="M133.731 662.688C131.792 670.713 128.874 678.384 125.672 685.954C122.259 693.373 118.967 701.196 113.503 707.371C115.088 704.208 116.826 699.366 118.199 696.051C122.804 684.721 127.601 673.29 133.731 662.678V662.688Z" fill="#191801"/>
<path d="M109.302 158.771C109.302 158.771 58.4428 269.777 57.0593 349.461C56.524 380.217 55.8878 412.68 63.7347 441.819C79.2469 499.429 108.292 531.994 113.24 534.824L103.717 545.547C103.717 545.547 82.0847 531.63 51.222 460.588C45.6373 447.732 44.3446 438.908 40.8604 417.643C38.3862 402.523 36.8006 383.38 37.8206 345.448C40.2242 255.759 99.253 158.771 99.253 158.771H109.302Z" fill="#845E4D"/>
<path d="M507.002 542.859L515.212 555.685" stroke="#191801" stroke-width="3" stroke-miterlimit="10"/>
<path d="M318.069 482.722C375.729 482.722 422.473 433.29 422.473 372.313C422.473 311.335 375.729 261.904 318.069 261.904C260.408 261.904 213.665 311.335 213.665 372.313C213.665 433.29 260.408 482.722 318.069 482.722Z" fill="#FFD6A9"/>
<path d="M369.987 324.507C369.987 342.629 347.911 357.324 320.674 357.324C293.437 357.324 271.36 342.629 271.36 324.507C271.36 306.385 294.75 300.482 321.987 300.482C349.224 300.482 369.977 306.375 369.977 324.507H369.987Z" fill="black" stroke="#1A0113" stroke-width="3" stroke-miterlimit="10"/>
<path d="M258.939 437.352C276.421 421.484 301.224 409.022 325.199 409.385C327.28 409.456 329.572 409.598 331.622 409.901C338.712 410.922 345.367 414.217 351.558 417.299C361.364 422.403 370.817 428.306 379.29 435.411L379.118 435.654C374.644 432.49 369.958 429.63 365.191 426.911C360.425 424.202 355.567 421.655 350.598 419.331C343.165 415.935 335.51 412.478 327.209 412.377C313.505 411.791 299.952 415.601 287.479 421.049C277.471 425.496 267.917 431.025 259.131 437.584L258.939 437.342V437.352Z" fill="#1A0113"/>
<path d="M320.675 412.135V357.334" stroke="black" stroke-width="3" stroke-miterlimit="10"/>
<path d="M125.086 683.589C125.086 683.589 63.7751 796.94 209.726 776.655C235.55 776.251 259.555 769.206 271.361 755.268C302.365 718.641 450.275 650.934 502.386 713.627C513.101 726.494 519.09 736.722 521.867 744.868L521.897 744.959V744.99C527.311 760.989 520.251 768.842 512.021 772.663C504.345 776.261 495.377 775.472 487.904 771.47C469.292 761.525 414.747 746.779 320.654 835.175C312.807 842.563 304.698 849.112 296.447 854.964" fill="#C18667"/>
<path d="M125.086 683.589C125.086 683.589 63.7751 796.94 209.726 776.655C235.55 776.251 259.555 769.206 271.361 755.268C302.365 718.641 450.275 650.934 502.386 713.627C513.101 726.494 519.09 736.722 521.867 744.868L521.898 744.959V744.99C527.311 760.989 520.251 768.842 512.021 772.663C504.345 776.261 495.377 775.472 487.904 771.47C469.292 761.525 414.747 746.779 320.654 835.175C312.807 842.563 304.698 849.112 296.447 854.964" stroke="#191801" stroke-width="3" stroke-miterlimit="10"/>
<path d="M595.469 947.484H23.3994C23.4701 933.86 24.0256 919.609 25.1667 904.731C25.6313 898.424 26.2271 891.986 26.924 885.437C27.338 881.576 27.7824 877.675 28.2671 873.753C28.2671 873.753 28.2873 873.763 28.3378 873.783C29.4083 874.218 43.0723 879.817 64.755 885.437C116.109 898.717 212.473 912.069 293.195 857.228C294.296 856.48 295.376 855.722 296.467 854.974L296.083 857.673C295.77 860.28 303.173 863.676 303.173 863.676C430.33 941.369 590.48 874.37 590.48 874.37C591.298 881.01 591.985 887.529 592.601 893.937C592.601 893.967 592.611 894.018 592.611 894.048C594.378 912.867 595.277 930.676 595.459 947.504L595.469 947.484Z" fill="#C18667" stroke="#191801" stroke-width="3" stroke-miterlimit="10"/>
<path d="M113.907 744.919C113.907 744.919 116.402 726.211 142.79 705.319C159.797 691.857 158.878 693.282 175.622 688.047C197.063 681.346 241.771 691.139 259.03 708.089C278.057 726.777 286.257 719.853 303.557 729.576" fill="#C18667"/>
<path d="M113.907 744.919C113.907 744.919 116.402 726.211 142.79 705.319C159.797 691.857 158.878 693.282 175.622 688.047C197.063 681.346 241.771 691.139 259.03 708.089C278.057 726.777 286.257 719.853 303.557 729.576" stroke="#191801" stroke-width="3" stroke-miterlimit="10"/>
<path d="M144.124 674.604C144.124 674.604 119.724 708.786 113.907 713.233L144.124 674.604Z" fill="#C18667"/>
<path d="M144.124 674.604C140.347 681.942 135.701 688.703 130.793 695.303C125.723 701.711 120.674 708.523 113.907 713.233C116.2 710.534 119.027 706.249 121.148 703.348C128.298 693.433 135.661 683.458 144.124 674.604Z" fill="#191801"/>
<path d="M304.193 310.438C304.102 310.488 297.093 313.591 303.435 314.187C309.777 314.784 339.852 314.187 339.852 314.187C339.852 314.187 342.731 312.368 337.045 310.205C331.359 308.032 313.554 305.556 304.203 310.438H304.193Z" fill="white"/>
<path d="M40.9615 905.509C40.7191 916.374 40.6888 930.332 41.3554 946.362H23.9951C23.9951 930.575 25.4494 917.284 26.227 906.116C26.8632 897.151 26.7623 892.128 27.348 887.105C27.9539 881.889 28.469 874.804 28.469 874.804L41.8704 879.272C41.8704 879.272 42.0017 882.132 41.8704 884.305C41.5977 888.247 41.1938 895.584 40.9615 905.499V905.509Z" fill="#845E4D"/>
<path d="M51.2219 460.588C45.6371 447.731 44.6474 442.728 41.1733 421.463C38.6991 406.343 36.8005 383.38 37.8205 345.448" fill="#845E4D"/>
</g>
<defs>
<clipPath id="clip0_50_36">
<rect width="619" height="949" fill="white"/>
</clipPath>
</defs>
</svg>
