<svg width="1923" height="1079" viewBox="0 0 1923 1079" fill="none" xmlns="http://www.w3.org/2000/svg">
<g clip-path="url(#clip0_17_3625)">
<mask id="mask0_17_3625" style="mask-type:alpha" maskUnits="userSpaceOnUse" x="0" y="0" width="1923" height="1079">
<rect x="0.939697" y="0.184082" width="1922.04" height="1078.31" fill="#D9D9D9"/>
</mask>
<g mask="url(#mask0_17_3625)">
<path d="M274.706 623.628C261.301 617.693 16.3543 621.958 -1 618.619V-0.950439H275.722L274.729 623.628H274.706Z" fill="#014335"/>
<path d="M531.388 622.613C510.423 620.446 479.979 624.711 465.22 625.614C463.482 609.953 425.456 219.947 394.539 237.233C364.547 253.976 453.756 613.135 454.185 624.621L364.953 623.628C364.953 623.628 350.307 651.023 293.617 617.603C293.617 617.603 298.785 139.387 341.912 99.2872C384.993 59.1876 429.067 -0.950439 429.067 -0.950439H497.017C497.017 -0.950439 480.476 557.894 531.365 622.635L531.388 622.613Z" fill="#014335"/>
<path d="M469.214 620.604C425.434 623.267 407.944 630.623 407.944 630.623L387.001 529.37H412.931L368.677 381.428L368.428 380.571C368 369.085 364.524 253.976 394.516 237.232C425.456 219.947 467.477 604.943 469.214 620.604Z" fill="#003A30"/>
<path d="M942.95 87.7559L935.344 620.92L715.357 619.679H763.132L771.189 141.959C771.189 141.959 817.949 51.6731 805.74 -0.973145H814.947C814.947 -0.973145 806.665 112.443 878.294 124.674C878.294 124.674 925.889 133.881 942.927 87.7559H942.95Z" fill="#014335"/>
<path d="M771.189 141.959L763.132 619.679H715.357V121.853C710.347 141.914 658.871 158.139 658.871 158.139L650.995 619.318L599.812 619.047L597.555 606.568L594.554 597.542L595.05 512.988L583.518 619.589L596.043 161.93C596.043 161.93 582.999 173.958 566.977 177.974C553.346 181.382 547.659 164.458 546.26 159.312V158.184L547.704 -0.950439H805.74C817.926 51.6732 771.189 141.982 771.189 141.982V141.959Z" fill="#003A30"/>
<path d="M228.714 260.972C226.367 260.52 223.997 260.092 221.582 259.708L75.4133 117.137C68.9365 110.818 58.0364 115.332 57.9236 124.38C56.705 227.8 48.7612 628.728 -1.02246 622.613C-1.02246 622.613 -1.02246 270.72 -1.02246 43.7074V-0.950439H168.233L228.691 260.972H228.714Z" fill="#00362A"/>
<path d="M547.727 -0.950439L546.282 158.184V159.335L574.514 618.596L542.717 548.619L558.469 575.495L574.514 618.596L535.405 618.483L525.385 619.611C521.345 619.882 526.468 621.326 523.106 617.061C472.216 552.297 497.04 -0.950439 497.04 -0.950439H547.727Z" fill="#013C2F"/>
<path d="M429.067 -0.950439C429.067 -0.950439 384.993 59.2102 341.889 99.3098C298.786 139.409 293.595 619.634 293.595 619.634C287.75 616.181 281.476 621.078 274.706 618.077L245.933 -0.950439H429.09H429.067Z" fill="#01362F"/>
<path d="M1910.87 686.767H1903.15V686.609C1900.69 686.587 1898.25 686.609 1895.84 686.7C1893.89 686.745 1891.98 686.835 1890.1 686.948C1834.77 690.085 1799.95 714.343 1779.21 737.18C1778.64 737.789 1778.1 738.421 1777.56 739.03C1776.36 740.384 1775.24 741.715 1774.17 743.024C1773.41 743.949 1772.66 744.875 1771.96 745.777C1771.2 746.748 1770.47 747.695 1769.77 748.643C1757.29 765.41 1752.56 779.017 1752.56 779.017C1747.82 772.247 1742.26 765.297 1735.97 758.392C1733.44 755.616 1730.78 752.84 1728 750.11C1726.04 748.147 1723.98 746.206 1721.91 744.265C1720.76 743.205 1719.58 742.144 1718.39 741.106C1717.28 740.113 1716.15 739.12 1715 738.127C1714.42 737.631 1713.85 737.112 1713.27 736.615C1712.29 735.803 1711.3 735.013 1710.33 734.223C1710.22 734.133 1710.11 734.043 1709.99 733.953C1707.89 732.26 1705.77 730.59 1703.58 728.943C1698.06 724.746 1692.23 720.752 1686.16 716.983L1686.12 716.961C1686.09 716.938 1686.05 716.915 1686 716.87C1686 716.87 1685.98 716.87 1685.98 716.848C1684.88 716.171 1683.77 715.516 1682.66 714.862C1665.38 704.572 1646.17 696.335 1625.68 691.732C1625.64 691.709 1625.59 691.709 1625.57 691.687C1624.35 691.461 1623.2 691.213 1622.09 690.942C1622.03 690.942 1621.96 690.942 1621.91 690.897C1619.5 690.423 1617.08 689.994 1614.65 689.611C1614.65 689.611 1614.62 689.611 1614.56 689.588H1614.47C1614.47 689.588 1614.4 689.588 1614.37 689.566C1614.37 689.566 1614.33 689.543 1614.31 689.543C1612.21 689.159 1600.97 687.038 1600.9 687.038C1600.38 687.016 1598.42 686.993 1595.19 687.219C1593.97 687.309 1592.57 687.422 1590.97 687.625H1590.9C1571.86 689.701 1527.92 698.908 1476.17 738.06C1475.16 738.827 1474.12 739.617 1473.1 740.407C1402.67 795.039 1414.41 886.385 1420.54 924.431C1420.57 924.431 1420.57 924.454 1420.57 924.476C1422.24 929.915 1423.95 934.721 1425.51 938.738C1425.53 938.783 1425.58 938.851 1425.58 938.896C1427.63 943.545 1429.62 948.035 1431.51 952.391H1431.53V952.436H1431.56C1444.89 982.539 1455.18 1004.59 1456.79 1004.59L1421.69 1001.58L1450.06 1081.78H1462.36C1462.36 1081.78 1485.52 975.498 1559.87 952.458C1563.53 951.33 1567.19 950.292 1570.84 949.367L1572.17 912.855L1573.21 948.78C1643.17 931.81 1712.11 951.127 1739.01 978.996C1764.81 972.248 1793.42 968.322 1824.68 969.022L1883.22 781.431C1816.38 788.856 1788.64 841.186 1778.62 849.197C1768.6 857.23 1776.61 840.17 1776.61 840.17C1800.67 783.034 1884.89 771.999 1886.04 772.405L1894.93 743.927L1907.25 792.489C1907.25 792.489 1910.96 788.878 1924 792.489V687.602C1919.51 687.196 1915.13 686.903 1910.87 686.767ZM1732.67 781.003C1673.68 699.788 1600.68 715.268 1600.68 715.268L1606.18 699.833C1690.38 699.833 1739.01 766.199 1739.01 766.199L1732.67 781.003ZM1667.54 756.744C1666.73 748.485 1684.38 750.945 1684.38 750.945C1684.38 750.945 1698.42 758.978 1688.4 763.988C1678.35 768.998 1668.33 764.981 1667.54 756.744ZM1648.29 756.97C1648.29 751.96 1654.64 749.275 1657.79 750.606C1671.31 756.27 1648.29 761.98 1648.29 756.97ZM1534.94 770.803C1529.84 765.59 1534.98 758.978 1534.94 754.578C1534.87 750.2 1541.01 763.988 1541.01 763.988C1543.02 777.008 1539.99 776.016 1534.94 770.803ZM1500.36 785.741C1498.83 780.416 1498.9 782.041 1506.91 781.025C1514.94 780.032 1536 815.122 1536 815.122C1543.02 836.176 1501.9 791.044 1500.36 785.741ZM1520.95 771.006C1520.95 771.006 1537.6 790.706 1536.79 795.896C1536 801.086 1506.91 768.005 1520.95 771.006ZM1480.84 885.302C1475.83 885.302 1478.84 879.277 1483.48 874.155C1488.09 869.032 1491.88 877.269 1491.88 877.269C1491.88 881.285 1485.85 885.302 1480.84 885.302ZM1467.73 882.278C1461.64 884.287 1461.8 880.27 1467.73 870.544C1473.67 860.818 1476.85 868.242 1476.85 868.242C1476.85 868.242 1473.83 880.27 1467.73 882.278ZM1458.8 861.224C1470.82 863.233 1450.76 874.267 1450.76 869.258C1450.76 864.248 1458.8 861.224 1458.8 861.224Z" fill="#73B534"/>
<path d="M1399.85 519.848L1388.07 478.259L1344.79 623.222L1266.54 622.771H1296.27C1296.27 622.771 1319.83 503.69 1324.9 468.668C1329.96 433.646 1341.99 43.6622 1340.99 35.6287C1340 27.5953 1367.51 12.5664 1372.79 -0.973145H1379.43L1399.85 519.825V519.848Z" fill="#014335"/>
<path d="M1866.68 449.893L1829.69 452.714C1805.09 448.043 1782.39 449.622 1762.58 454.248L1744.23 392.734L1795.66 258.715C1796.11 273.428 1799.88 291.052 1805.45 309.579C1824.95 374.32 1866.68 449.916 1866.68 449.916V449.893Z" fill="#001E1B"/>
<path d="M1614.56 689.588C1611.37 689.453 1541.96 687.016 1473.13 740.407C1402.69 795.039 1414.43 886.385 1420.57 924.431C1410.39 891.463 1401.23 834.303 1433.52 779.852C1443.72 762.657 1458.07 745.71 1477.84 729.914C1484.75 724.385 1491.65 719.488 1498.54 715.155C1499.76 714.366 1500.97 713.621 1502.22 712.899C1515.46 704.933 1528.64 699.066 1541.64 694.982C1547.58 693.131 1553.51 691.642 1559.36 690.513C1560.33 690.333 1561.3 690.152 1562.27 689.972C1569.4 688.731 1576.44 687.986 1583.41 687.738C1587.36 687.58 1591.31 687.602 1595.22 687.738C1601.76 687.986 1608.21 688.618 1614.56 689.633V689.588Z" fill="#E3F9C4"/>
<path d="M1886.04 772.405L1883.22 781.431C1816.38 788.855 1788.64 841.163 1778.62 849.197C1768.6 857.208 1776.61 840.17 1776.61 840.17C1800.67 783.033 1884.89 771.999 1886.04 772.405Z" fill="#7CBE4F"/>
<path d="M1296.24 948.712C1286.52 952.684 1277.49 959.251 1270.49 965.321C1261.85 972.835 1256.28 979.537 1256.28 979.537C1256.28 979.537 1226.19 946.456 1164.02 952.458C1101.87 958.483 1088.83 1039.68 1088.83 1039.68C1034.62 1038.05 1014.58 1066.51 1008.85 1077.52C1008.58 1078.04 1008.33 1078.53 1008.12 1078.99C1008.12 1078.99 1008.12 1078.99 1008.12 1079.01C1007.94 1079.35 1007.81 1079.66 1007.67 1079.96C1007.18 1081.11 1006.95 1081.78 1006.95 1081.78H1066.1C1066.1 1081.78 1088.83 1069.76 1113.9 1075.78C1113.9 1075.78 1122.92 1005.6 1179.07 995.582C1235.22 985.54 1252.76 1014.33 1255.01 1013.48C1257.27 1012.62 1272.95 983.599 1299.2 983.08L1310.93 945.147C1305.97 945.463 1301.03 946.772 1296.24 948.712ZM1022.16 1067.25C1022.16 1067.25 1013.13 1074.27 1015.14 1071.27C1017.15 1068.27 1037.19 1038.19 1089.32 1041.19L1090.34 1043.2C1090.34 1043.2 1047.23 1039.18 1022.16 1067.25ZM1253.75 981.027C1253.75 981.027 1205.63 951.962 1178.55 954.963C1151.5 957.987 1106.38 979.041 1097.36 1021.13C1097.36 1021.13 1095.35 1020.13 1096.34 1017.13C1097.36 1014.11 1108.39 972.023 1149.49 957.987C1190.6 943.951 1240.73 965.005 1252.76 978.025C1252.76 978.025 1255.76 980.034 1253.75 981.027Z" fill="#A4CD40"/>
<path d="M1528.98 1031.64C1527.99 1046.67 1554.53 1081.76 1554.53 1081.76H1462.36C1462.36 1081.76 1485.54 975.475 1559.9 952.413C1563.55 951.285 1567.21 950.247 1570.87 949.322L1566.1 1079.75L1529 1031.62L1528.98 1031.64Z" fill="#036839"/>
<path d="M1924 400.226V408.056C1924 408.056 1907.46 414.578 1902.45 415.593C1897.44 416.609 1898.43 416.586 1905.45 407.582C1912.47 398.556 1924 400.226 1924 400.226Z" fill="#004B20"/>
<path d="M1905.45 407.582C1898.43 416.609 1897.44 416.609 1902.45 415.593C1907.46 414.578 1924 408.056 1924 408.056V501.389C1903.13 483.291 1882.7 470.857 1863.11 462.756C1863.11 462.756 1868.35 459.687 1870.36 443.643C1872.37 427.598 1866.68 423.423 1866.68 423.423C1852.98 408.214 1856.32 402.527 1860.34 401.535C1864.35 400.542 1873.38 411.554 1873.38 422.589C1873.38 433.623 1875.39 437.617 1875.39 437.617C1881.42 443.643 1880.4 432.608 1880.4 428.591C1880.4 424.574 1894.44 417.556 1894.44 416.563C1894.44 415.571 1896.45 409.545 1896.45 404.536C1896.45 399.526 1884.42 393.501 1880.4 382.489C1876.38 371.477 1883.4 374.478 1885.41 371.454C1887.42 368.43 1884.42 364.436 1876.29 358.772C1868.19 353.108 1872.39 350.4 1875.34 345.932C1878.3 341.442 1886.43 351.416 1891.46 357.847C1896.49 364.278 1893.44 335.371 1896.45 333.363C1899.45 331.355 1902.47 340.381 1902.47 350.4C1902.47 360.42 1904.48 357.418 1904.48 357.418C1910.5 350.4 1924.02 352.77 1924.02 352.77V400.181C1924.02 400.181 1912.49 398.511 1905.47 407.537L1905.45 407.582Z" fill="#054C2D"/>
<path d="M1828.74 190.544C1816.71 255.691 1848.06 258.309 1845.92 262.01C1843.8 265.733 1805.23 272.232 1805.45 309.556C1824.95 374.32 1866.68 449.916 1866.68 449.916L1829.69 452.737C1840.5 454.79 1851.67 458.04 1863.11 462.778C1863.11 462.778 1868.35 459.709 1870.36 443.665C1872.37 427.643 1866.68 423.469 1866.68 423.469C1852.98 408.259 1856.32 402.573 1860.34 401.58C1864.35 400.564 1873.36 411.599 1873.36 422.611C1873.36 433.623 1875.37 437.663 1875.37 437.663C1881.39 443.665 1880.38 432.653 1880.38 428.636C1880.38 424.619 1894.41 417.602 1894.41 416.609C1894.41 415.616 1896.42 409.591 1896.42 404.581C1896.42 399.571 1884.39 393.546 1880.38 382.512C1876.38 371.499 1883.4 374.501 1885.41 371.499C1887.4 368.476 1884.39 364.481 1876.27 358.817C1868.17 353.153 1872.37 350.445 1875.32 345.977C1878.28 341.487 1886.4 351.438 1891.44 357.87C1896.49 364.323 1893.42 335.394 1896.42 333.386C1899.45 331.4 1902.45 340.404 1902.45 350.445C1902.45 360.487 1904.46 357.463 1904.46 357.463C1910.46 350.445 1924 352.815 1924 352.815V99.603C1924 99.603 1840.79 125.373 1828.74 190.544ZM1886.27 397.947C1887.4 404.581 1879.38 411.599 1870.36 398.556C1861.33 385.535 1859.32 385.535 1860.34 381.519C1861.33 377.502 1859.32 372.492 1865.35 375.494C1865.35 375.494 1885.12 391.312 1886.27 397.947Z" fill="#229336"/>
<path d="M1648.29 327.09L1603.84 343.202C1604.36 342.593 1621.39 322.531 1633.35 298.679C1612.34 312.399 1594.09 328.579 1582.62 347.422C1582.62 347.422 1574.59 363.466 1571.59 363.466C1568.59 363.466 1564.57 357.847 1571.59 338.598C1578.61 319.35 1615.71 270.246 1643.78 255.195C1644.71 254.698 1645.68 254.179 1646.67 253.66C1646.94 252.487 1647.19 251.291 1647.46 250.095C1647.46 250.095 1637.51 255.488 1624.26 266.41C1595.76 289.856 1552.04 338.756 1559.36 414.059C1559.36 414.059 1552.31 413.991 1541.57 416.022C1524.44 419.204 1497.95 427.643 1475.61 449.916C1454.69 470.767 1437.4 503.758 1434.92 555.953C1434.83 557.781 1434.76 559.609 1434.72 561.482C1434.72 561.482 1416.59 556.472 1413.64 568.5L1443.74 674.762L1415.8 668.331L1430.43 709.627C1432.96 707.663 1436.02 706.039 1439.75 704.843C1466.56 696.132 1483.8 703.669 1492.29 709.627C1486.17 691.845 1493.39 674.266 1493.39 674.266L1471.32 650.188C1437.24 617.107 1446.25 571.004 1484.36 548.935C1522.46 526.888 1569.58 566.988 1574.59 574.006C1579.6 581.024 1583.62 585.04 1583.66 576.398C1583.71 567.778 1595.55 555.953 1595.55 555.953L1623.22 453.188L1614.65 455.535L1648.29 327.09ZM1537.49 516.869C1518.44 524.88 1528.62 470.97 1530.54 466.863C1532.48 462.733 1539.18 428.523 1551.37 446.644C1551.37 446.644 1556.53 508.835 1537.49 516.869ZM1567.68 435.632C1454.51 444.613 1446.25 533.906 1443.74 540.428C1441.24 546.927 1440.58 535.034 1440.58 535.034C1454.98 448.946 1503.41 429.629 1541.51 418.617C1579.6 407.582 1593.93 419.452 1593.93 419.452L1614.69 436.647C1619.7 440.664 1567.68 435.632 1567.68 435.632ZM1599.66 527.881C1598.65 531.898 1579.6 556.968 1579.08 524.383C1578.56 491.798 1610.7 469.751 1610.7 469.751C1622.73 459.709 1600.65 523.887 1599.66 527.881Z" fill="#16994D"/>
<path d="M1924 69.6582V99.6031C1924 99.6031 1840.79 125.373 1828.74 190.544C1816.71 255.714 1848.06 258.309 1845.92 262.032C1843.77 265.756 1805.23 272.232 1805.43 309.579C1799.86 291.052 1796.09 273.428 1795.64 258.715L1744.21 392.734L1725.45 329.888L1757.54 340.923C1746.21 336.568 1729.58 299.65 1714.42 259.302C1746.08 247.5 1773.16 240.347 1783.11 237.165C1808.18 229.154 1795.14 224.122 1795.14 224.122C1762.49 216.878 1730.67 221.391 1703.65 229.538C1703.47 229.018 1703.29 228.522 1703.11 228.003C1707.89 225.069 1714.44 223.039 1721.86 221.685C1752.01 216.156 1796.65 221.617 1796.65 221.617C1800.67 96.3085 1923.98 69.6582 1923.98 69.6582H1924Z" fill="#4AA738"/>
<path d="M1686.09 716.938C1667.93 705.678 1647.53 696.629 1625.66 691.709C1625.61 691.709 1625.57 691.709 1625.55 691.687C1624.4 691.416 1623.22 691.168 1622.07 690.942C1622 690.942 1621.96 690.942 1621.89 690.897C1604.11 686.542 1601.42 678.035 1619.18 667.745C1637.76 657.003 1655.58 679.05 1656.46 680.156L1656.49 680.201C1669.76 703.308 1685.24 716.261 1686.07 716.938H1686.09Z" fill="#004B20"/>
<path d="M1907.55 630.014C1907.55 630.014 1898.93 632.632 1890.1 633.083C1881.28 633.534 1865.84 613.586 1880.87 606.568C1895.9 599.55 1907.23 618.099 1907.23 618.099C1907.5 621.056 1907.57 625.569 1907.55 629.992V630.014Z" fill="#004B20"/>
<path d="M1901.95 650.685C1903.87 653.573 1903.22 684.172 1903.17 686.587C1900.69 686.587 1898.25 686.587 1895.86 686.677C1895.86 686.677 1883.58 661.11 1845.94 662.532C1846.01 661.358 1851.02 561.346 1883.9 542.414C1883.9 542.414 1891.75 536.411 1895.86 545.934C1899.94 555.457 1904.95 586.53 1904.95 586.53C1898.93 589.531 1906.53 610.608 1907.25 618.122C1907.25 618.122 1895.93 599.573 1880.9 606.591C1865.87 613.609 1881.28 633.557 1890.13 633.106C1898.95 632.654 1907.57 630.037 1907.57 630.037C1907.53 636.897 1907.25 643.486 1907.25 643.486C1907.25 643.486 1901.95 634.37 1898.95 636.536C1895.95 638.702 1899.94 647.706 1901.95 650.73V650.685Z" fill="#1C9147"/>
<path d="M1895.84 686.7C1893.9 686.745 1891.98 686.835 1890.08 686.948C1889.58 686.316 1871.85 664.924 1837.5 668.805C1803.31 672.686 1780.81 708.453 1779.79 719.262C1780 714.975 1780.27 710.8 1780.61 707.844C1781.6 698.818 1802.66 665.736 1842.76 662.735C1843.82 662.644 1844.88 662.599 1845.89 662.554C1883.54 661.133 1895.81 686.7 1895.81 686.7H1895.84Z" fill="#3FA467"/>
<path d="M1890.1 686.925C1834.77 690.062 1799.97 714.343 1779.21 737.157C1779.21 736.819 1779.39 728.243 1779.79 719.849C1779.79 719.759 1779.79 719.646 1779.79 719.556C1779.79 719.465 1779.79 719.375 1779.79 719.307V719.262C1780.79 708.431 1803.31 672.664 1837.5 668.805C1871.85 664.924 1889.58 686.316 1890.08 686.948L1890.1 686.925Z" fill="#0F6A32"/>
<path d="M1774.36 743.16L1769.77 748.643C1757.29 765.41 1752.56 779.017 1752.56 779.017C1747.82 772.247 1742.26 765.297 1735.97 758.392C1733.44 750.809 1732.52 745.958 1732.29 743.949C1732.06 741.941 1733.51 724.904 1729.49 722.895C1725.47 720.887 1726.49 711.861 1730.48 709.852C1734.48 707.844 1738.99 719.872 1738.99 719.872C1749.87 726.325 1769.01 738.398 1774.33 743.16H1774.36Z" fill="#095A28"/>
<path d="M1825.74 650.685C1819.72 655.694 1779.79 696.064 1779.79 696.064L1777.56 739.007C1775.55 741.286 1773.7 743.543 1771.96 745.755C1771.85 745.664 1771.13 744.987 1769.93 743.927L1771.99 679.93C1771.99 679.93 1750.57 653.686 1747.57 640.665C1744.57 627.622 1747.21 629.54 1751.9 633.106C1756.6 636.671 1773.61 671.107 1773.61 671.107L1776.66 614.602C1776.66 614.602 1767.56 602.755 1773.61 598.151C1779.66 593.548 1781.85 601.536 1781.85 601.536C1781.85 601.536 1791.69 579.489 1796.7 581.497C1801.71 583.506 1785.66 610.562 1785.66 613.586C1785.66 616.61 1781.64 637.641 1781.64 637.641C1781.64 637.641 1784.6 641.59 1797.65 628.096C1810.71 614.602 1811.7 610.585 1816.71 613.586C1821.72 616.587 1781.49 652.287 1781.49 652.287L1781.71 679.163C1781.71 679.163 1827.75 638.657 1831.77 638.657C1835.78 638.657 1831.77 645.675 1825.74 650.685Z" fill="#052121"/>
<path d="M1681.9 999.959C1676.53 1002.53 1671.34 1005.22 1666.33 1007.95C1666.33 1007.95 1658.29 979.515 1664.32 978.522C1670.25 977.529 1681.58 999.373 1681.9 999.959Z" fill="#012E21"/>
<path d="M1576.96 1078.78C1575.31 1080.7 1574.48 1081.76 1574.48 1081.76H1554.5C1554.5 1081.76 1527.96 1046.67 1528.96 1031.64L1566.06 1079.77L1570.82 949.344C1571.61 949.141 1572.4 948.96 1573.19 948.757L1576.94 1078.78H1576.96Z" fill="#012E21"/>
<path d="M1808.77 1020.04L1789.52 1081.78H1648.2C1648.2 1081.78 1719.61 1027.47 1808.77 1020.04Z" fill="#026737"/>
<path d="M1824.68 968.999L1808.77 1020.04C1719.61 1027.47 1648.2 1081.78 1648.2 1081.78H1574.48C1574.48 1081.78 1575.31 1080.72 1576.96 1078.8C1585.53 1068.76 1616.25 1035.34 1666.35 1007.95C1671.34 1005.22 1676.53 1002.55 1681.92 999.959C1699.05 991.746 1718.12 984.434 1739.04 978.973C1764.85 972.226 1793.47 968.322 1824.73 968.999H1824.68Z" fill="#69B93C"/>
<path d="M1924 792.466V858.471L1907.26 792.466C1907.26 792.466 1910.98 788.878 1924 792.466Z" fill="#25832D"/>
<path d="M1300.21 1072.67L1297.24 1081.76H1260.38C1260.38 1081.76 1276.2 1053.69 1288.8 1055.2C1301.12 1056.67 1300.24 1072.01 1300.21 1072.67Z" fill="#004B20"/>
<path d="M1227.37 1081.78H1220.46C1220.46 1081.78 1221.18 1074.77 1226.19 1074.77C1231.2 1074.77 1227.37 1081.78 1227.37 1081.78Z" fill="#004B20"/>
<path d="M1184.35 1081.78H1175.64C1180.25 1075.76 1184.35 1081.78 1184.35 1081.78Z" fill="#004B20"/>
<path d="M1199.72 1081.78H1190.49C1190.49 1081.78 1190.09 1048.7 1191.53 1045.7C1192.95 1042.7 1197.1 1044.71 1199.11 1045.7C1201.12 1046.69 1199.72 1081.78 1199.72 1081.78Z" fill="#004B20"/>
<path d="M1300.21 1072.67C1300.26 1072.01 1301.12 1056.67 1288.8 1055.2C1276.2 1053.69 1260.38 1081.76 1260.38 1081.76H1227.37C1227.37 1081.76 1231.2 1074.74 1226.19 1074.74C1221.18 1074.74 1220.46 1081.76 1220.46 1081.76H1199.72C1199.72 1081.76 1201.12 1046.67 1199.11 1045.68C1197.1 1044.68 1192.95 1042.68 1191.53 1045.68C1190.09 1048.68 1190.49 1081.76 1190.49 1081.76H1184.35C1184.35 1081.76 1180.25 1075.74 1175.64 1081.76H1066.08C1066.08 1081.76 1088.83 1069.73 1113.88 1075.74C1113.88 1075.74 1122.9 1005.56 1179.05 995.536C1235.2 985.517 1252.73 1014.29 1254.99 1013.43C1257.25 1012.57 1272.95 983.554 1299.18 983.035L1288.77 1016.68L1321.41 1007.56L1300.17 1072.64L1300.21 1072.67Z" fill="#17751F"/>
<path d="M1924 -0.950439V69.6582C1924 69.6582 1800.67 96.286 1796.67 221.617C1796.67 221.617 1752.06 216.156 1721.89 221.685L1720.15 201.172L1767.61 -0.950439H1924.02H1924Z" fill="#00382B"/>
<path d="M1767.59 -0.950439L1720.15 201.172L1702.93 -0.950439H1767.59Z" fill="#004D3E"/>
<path d="M1721.89 221.662C1714.46 223.016 1707.92 225.047 1703.13 227.98C1688.51 185.985 1677.36 148.391 1677.36 148.391C1677.36 148.391 1656.4 210.537 1647.46 250.05C1647.46 250.05 1637.51 255.443 1624.26 266.365L1639.06 69.6131L1644.37 -0.995605H1702.93L1720.15 201.127L1721.89 221.639V221.662Z" fill="#003D32"/>
<path d="M1644.37 -0.950439L1639.06 69.6582C1639.06 69.6582 1626.74 82.769 1620.72 72.7272C1614.69 62.6854 1611.35 69.6582 1611.35 69.6582C1611.35 69.6582 1603.68 140.899 1596.68 148.887C1589.69 156.875 1587.63 210.086 1589.08 228.138C1590.52 246.191 1566.58 280.266 1555.27 292C1545 302.674 1542.02 398.94 1541.57 416.045C1524.47 419.249 1497.95 427.689 1475.63 449.939L1486.37 57.7209C1486.37 57.7209 1484.36 42.692 1464.32 48.6945C1444.28 54.697 1424.85 61.5796 1427.04 69.6808C1429.23 77.7819 1434.94 555.976 1434.94 555.976C1434.85 557.781 1434.78 559.631 1434.74 561.482C1434.74 561.482 1416.64 556.495 1413.66 568.5L1399.87 519.87L1379.45 -0.950439H1644.39H1644.37Z" fill="#003A30"/>
<path d="M1863.11 462.778C1851.67 458.04 1840.5 454.79 1829.69 452.737C1805.09 448.065 1782.41 449.622 1762.58 454.248C1761.04 454.61 1759.55 454.971 1758.06 455.377C1757.97 455.399 1757.88 455.422 1757.79 455.444C1742.99 459.348 1729.88 464.854 1718.95 470.541C1695.12 482.93 1675.56 502.066 1662.17 525.376C1625.52 589.17 1635.93 640.327 1652.97 673.657C1653.55 674.785 1654.12 675.868 1654.7 676.951C1655.29 678.034 1655.88 679.118 1656.49 680.156L1656.53 680.201C1657.16 681.284 1657.77 682.344 1658.4 683.383C1659.04 684.421 1659.67 685.436 1660.3 686.429C1661.11 687.715 1661.95 688.934 1662.76 690.152C1663.64 691.439 1664.5 692.68 1665.38 693.876C1666.53 695.5 1667.68 697.012 1668.81 698.456C1672.35 702.992 1675.69 706.738 1678.47 709.649C1678.96 710.168 1679.44 710.665 1679.89 711.116C1683.14 714.411 1685.37 716.329 1685.98 716.848C1685.98 716.87 1686 716.87 1686 716.87C1686.05 716.915 1686.09 716.938 1686.12 716.961C1686.12 716.961 1686.14 716.983 1686.16 716.983C1692.23 720.752 1698.05 724.746 1703.58 728.943C1705.77 730.59 1707.89 732.26 1709.99 733.953C1710.11 734.043 1710.22 734.133 1710.33 734.223C1711.91 735.51 1713.47 736.819 1715 738.127C1716.15 739.12 1717.28 740.113 1718.39 741.106C1719.58 742.144 1720.76 743.205 1721.91 744.265C1723.98 746.206 1726.04 748.147 1728 750.11C1730.78 752.84 1733.44 755.616 1735.97 758.392C1733.44 750.787 1732.49 745.935 1732.29 743.927V743.791C1732.29 741.174 1737.75 723.866 1733.12 722.737C1728.86 721.699 1726.38 718.044 1727.82 713.892C1728.5 711.951 1729.24 710.755 1730.01 710.146C1730.06 710.101 1730.12 710.055 1730.17 710.033C1730.28 709.943 1730.39 709.897 1730.51 709.852C1730.66 709.762 1730.8 709.717 1730.96 709.672C1731.12 709.649 1731.25 709.627 1731.41 709.627C1732.24 709.627 1733.06 710.101 1733.85 710.89C1733.96 711.003 1734.07 711.116 1734.19 711.229C1734.3 711.342 1734.41 711.477 1734.52 711.612C1734.64 711.725 1734.73 711.861 1734.84 711.996C1735.07 712.267 1735.27 712.56 1735.47 712.876C1735.79 713.327 1736.08 713.801 1736.35 714.275C1736.92 715.223 1737.41 716.216 1737.82 717.073C1737.95 717.367 1738.07 717.638 1738.2 717.886C1738.72 719.059 1739.01 719.872 1739.01 719.872C1739.35 720.075 1739.69 720.278 1740.05 720.503C1750.77 727.115 1764.74 739.323 1769.91 743.927L1770.05 739.797L1771.96 679.953C1771.96 679.953 1750.55 653.708 1747.55 640.665C1744.54 627.645 1747.18 629.563 1751.88 633.106C1756.57 636.671 1773.59 671.107 1773.59 671.107L1776.61 614.602C1776.61 614.602 1767.54 602.777 1773.59 598.174C1779.61 593.548 1781.83 601.559 1781.83 601.559C1781.83 601.559 1791.66 579.512 1796.67 581.52C1801.68 583.528 1785.64 610.608 1785.64 613.609C1785.64 616.61 1781.62 637.664 1781.62 637.664C1781.62 637.664 1784.58 641.613 1797.64 628.119C1810.71 614.602 1811.7 610.608 1816.71 613.609C1821.72 616.61 1781.49 652.309 1781.49 652.309L1781.71 679.163C1781.71 679.163 1827.75 638.679 1831.77 638.679C1835.78 638.679 1831.77 645.675 1825.74 650.707C1819.74 655.717 1779.79 696.065 1779.79 696.065L1777.56 739.03C1778.1 738.421 1778.64 737.789 1779.21 737.18C1779.21 736.999 1779.25 734.788 1779.37 731.538C1779.46 728.311 1779.59 724.069 1779.79 719.872V719.578C1779.79 719.578 1779.79 719.398 1779.79 719.33V719.262C1780.02 714.997 1780.27 710.8 1780.61 707.844C1781.6 698.818 1802.65 665.736 1842.76 662.735C1843.84 662.644 1844.88 662.599 1845.89 662.554C1845.96 661.358 1850.99 561.369 1883.87 542.436C1883.87 542.436 1891.73 536.433 1895.81 545.934C1899.92 555.457 1904.93 586.53 1904.93 586.53C1910.93 583.528 1914.95 605.575 1914.95 605.575L1918.97 603.59C1922.98 601.581 1921.97 608.915 1921.97 608.915L1915.6 616.204L1913.96 640.665C1913.96 640.665 1917.95 636.671 1919.96 636.671C1921.97 636.671 1921.97 642.674 1921.97 642.674L1910.84 653.844V686.767C1915.11 686.903 1919.49 687.196 1923.98 687.602V501.411C1903.1 483.313 1882.68 470.88 1863.09 462.778H1863.11ZM1740.03 561.482C1739.74 561.482 1739.47 561.482 1739.2 561.414H1739.15C1738.9 561.369 1738.63 561.301 1738.38 561.233C1738.04 561.121 1737.71 560.985 1737.39 560.805C1737.14 560.669 1736.94 560.534 1736.74 560.376C1736.51 560.218 1736.33 560.037 1736.13 559.857C1735.77 559.518 1735.47 559.112 1735.2 558.683C1735.07 558.413 1734.95 558.142 1734.84 557.848C1734.75 557.6 1734.66 557.329 1734.61 557.059C1734.61 557.014 1734.59 556.968 1734.59 556.923C1734.52 556.607 1734.5 556.291 1734.5 555.953C1734.5 555.727 1734.52 555.502 1734.55 555.253C1734.59 554.937 1734.66 554.644 1734.75 554.351C1734.93 553.764 1735.2 553.222 1735.54 552.749C1735.72 552.5 1735.92 552.275 1736.13 552.072C1736.33 551.869 1736.55 551.665 1736.8 551.485C1737.05 551.327 1737.3 551.169 1737.55 551.034C1737.82 550.898 1738.09 550.785 1738.38 550.695H1738.41C1738.63 550.627 1738.88 550.56 1739.13 550.515C1739.2 550.515 1739.26 550.492 1739.33 550.492C1739.44 550.469 1739.58 550.469 1739.67 550.469C1739.78 550.469 1739.92 550.469 1740.03 550.469C1740.26 550.469 1740.5 550.469 1740.73 550.515C1740.96 550.537 1741.18 550.582 1741.41 550.65C1741.63 550.695 1741.84 550.763 1742.04 550.853C1742.24 550.921 1742.47 551.034 1742.65 551.124C1743.12 551.395 1743.55 551.711 1743.93 552.072C1744.09 552.252 1744.25 552.433 1744.41 552.613C1744.72 553.042 1745 553.516 1745.18 554.012C1745.24 554.193 1745.31 554.396 1745.36 554.599C1745.42 554.825 1745.47 555.05 1745.49 555.276C1745.51 555.502 1745.54 555.727 1745.54 555.976C1745.54 556.201 1745.51 556.427 1745.49 556.652C1745.45 556.968 1745.4 557.284 1745.29 557.578C1745.2 557.871 1745.09 558.164 1744.95 558.435C1744.88 558.571 1744.81 558.683 1744.75 558.819C1744.68 558.954 1744.59 559.067 1744.5 559.202C1744.32 559.428 1744.12 559.654 1743.91 559.879C1743.71 560.082 1743.48 560.286 1743.23 560.466C1743.05 560.602 1742.85 560.714 1742.65 560.827C1742.45 560.963 1742.22 561.053 1741.97 561.143C1741.86 561.188 1741.75 561.233 1741.63 561.256C1741.34 561.346 1741.05 561.414 1740.73 561.459C1740.48 561.482 1740.26 561.504 1740.03 561.504V561.482ZM1741.11 536.84C1737.71 533.252 1735.52 528.4 1744.54 526.392C1753.55 524.383 1753.8 540.428 1753.8 540.428C1751.02 548.439 1744.54 540.428 1741.11 536.84ZM1762.58 524.383C1759.82 524.383 1757.57 522.375 1757.57 519.87C1757.57 517.365 1759.82 515.357 1762.58 515.357C1765.33 515.357 1767.59 517.365 1767.59 519.87C1767.59 522.375 1765.35 524.383 1762.58 524.383ZM1815.22 487.285C1810.51 487.285 1806.69 485.277 1806.69 482.772C1806.69 480.267 1810.51 478.259 1815.22 478.259C1819.94 478.259 1823.73 480.267 1823.73 482.772C1823.73 485.277 1819.92 487.285 1815.22 487.285ZM1830.75 504.322C1826.76 506.331 1821.72 504.322 1821.72 502.314C1821.72 500.305 1829.76 491.302 1834.95 487.285C1840.16 483.268 1847.81 489.293 1847.81 489.293C1848.81 494.303 1834.77 502.314 1830.75 504.322Z" fill="#80BB3C"/>
<path d="M1421.69 1001.58L1450.06 1081.78H1297.24L1300.21 1072.69L1321.45 1007.59L1288.82 1016.7L1299.22 983.058L1310.96 945.147L1360.24 785.741C1360.24 785.741 1360.72 786.892 1361.6 788.991C1368.53 805.532 1400.48 881.579 1425.53 938.716C1425.53 938.783 1425.58 938.828 1425.6 938.896C1428.71 946.93 1431.2 951.759 1431.53 952.391C1431.53 952.391 1431.53 952.39 1431.53 952.413C1431.53 952.413 1431.53 952.413 1431.53 952.436C1444.87 982.539 1455.18 1004.59 1456.76 1004.59L1421.67 1001.58H1421.69Z" fill="#013025"/>
<path d="M1924 858.471V1081.78H1789.5L1808.77 1020.04L1824.68 968.999L1883.22 781.431L1886.04 772.405L1894.93 743.927L1907.26 792.466L1924 858.471Z" fill="#001E1B"/>
<path d="M1433.52 779.829C1401.2 834.281 1410.39 891.463 1420.57 924.409C1420.57 924.409 1420.57 924.431 1420.57 924.454C1422.26 929.915 1423.97 934.699 1425.51 938.716C1400.46 881.579 1368.5 805.509 1361.58 788.991L1368.28 792.06L1357.13 753.72L1296.24 948.712C1286.52 952.661 1277.49 959.251 1270.49 965.321L1346.59 678.283L1326.44 684.624L1344.78 623.199L1388.07 478.236L1399.85 519.825L1413.64 568.477L1443.77 674.74L1415.8 668.309L1430.43 709.604C1405.6 728.785 1433.52 779.829 1433.52 779.829Z" fill="#00412D"/>
<path d="M1739.01 978.973C1718.12 984.434 1699.05 991.745 1681.9 999.959C1681.58 999.35 1670.25 977.529 1664.32 978.522C1658.29 979.515 1666.33 1007.95 1666.33 1007.95C1616.23 1035.32 1585.51 1068.76 1576.94 1078.8L1573.19 948.78C1643.15 931.81 1712.09 951.127 1738.99 978.996L1739.01 978.973Z" fill="#036937"/>
<path d="M1689.28 764.191C1677.83 769.9 1666.42 765.342 1665.49 755.932C1664.57 746.522 1684.7 749.343 1684.7 749.343C1684.7 749.343 1700.7 758.482 1689.28 764.213V764.191Z" fill="#6CB43A"/>
<path d="M1647.28 757.669C1647.28 751.938 1654.55 748.869 1658.18 750.381C1673.68 756.88 1647.28 763.424 1647.28 757.669Z" fill="#6DB33A"/>
<path d="M1495.81 782.402C1493.98 776.354 1494.07 778.182 1503.57 777.054C1513.07 775.925 1538.05 815.822 1538.05 815.822C1546.38 839.764 1497.63 788.449 1495.81 782.424V782.402Z" fill="#589E25"/>
<path d="M1538.98 797.814C1538.03 803.772 1504 765.771 1520.43 769.223C1520.43 769.223 1539.93 791.857 1538.98 797.814Z" fill="#7AB12F"/>
<path d="M1534.08 770.938C1528.35 765.071 1534.15 757.602 1534.08 752.66C1534.01 747.718 1542.99 763.965 1542.99 763.965C1545.25 778.633 1539.79 776.783 1534.08 770.938Z" fill="#8FC039"/>
<path d="M1446.97 869.912C1446.97 862.601 1458.66 858.223 1458.66 858.223C1476.19 861.157 1446.97 877.224 1446.97 869.912Z" fill="#59A225"/>
<path d="M1479.96 866.437C1479.96 866.437 1475.59 883.971 1466.67 886.904C1457.78 889.838 1458.03 883.971 1466.67 869.777C1475.34 855.583 1479.96 866.437 1479.96 866.437Z" fill="#6DAD31"/>
<path d="M1494.88 876.592C1494.88 882.436 1486.1 888.281 1478.79 888.281C1471.48 888.281 1475.86 879.503 1482.63 872.056C1489.37 864.587 1494.88 876.592 1494.88 876.592Z" fill="#64A731"/>
<path d="M1740.01 765.184L1732.49 782.018C1671.58 700.803 1599.14 715.855 1599.14 715.855L1602.82 698.818C1689.8 698.818 1740.01 765.184 1740.01 765.184Z" fill="#61A42C"/>
<path d="M596.043 161.953L601.55 619.611L574.469 618.618L542.671 548.619L546.237 159.335C547.636 164.48 553.323 181.404 566.954 177.997C582.999 173.98 596.021 161.953 596.021 161.953H596.043Z" fill="#014335"/>
<path d="M1498.54 715.11C1491.65 719.443 1484.75 724.362 1477.84 729.868C1458.07 745.687 1443.72 762.611 1433.52 779.807C1433.52 779.807 1405.63 728.763 1430.43 709.582C1432.96 707.618 1436.02 705.994 1439.75 704.798C1466.56 696.087 1483.8 703.624 1492.29 709.582C1496.48 712.538 1498.54 715.088 1498.54 715.088V715.11Z" fill="#005739"/>
<path d="M715.357 121.853V619.702L651.018 619.341L658.894 158.162C658.894 158.162 710.347 141.914 715.38 121.876L715.357 121.853Z" fill="#014335"/>
<path d="M1372.79 -0.950439C1367.51 12.5891 1339.98 27.618 1340.99 35.6514C1342.01 43.6849 1329.96 433.669 1324.9 468.691C1319.83 503.713 1296.27 622.793 1296.27 622.793H1266.54C1266.54 622.793 1296.9 65.7318 1288.86 35.6514C1280.85 5.5711 1232.72 29.6263 1232.72 29.6263C1197.13 60.2708 1222.79 607.2 1223.51 622.545L1169.14 622.252H1169.01L1173.61 55.8479C1170.65 72.0276 1111.42 87.5078 1111.42 87.5078V621.484H1033.08L1040.22 73.7426C1031.19 98.8133 968.022 87.7786 968.022 87.7786L958.973 620.943H935.344L942.95 87.7786C925.911 133.903 878.317 124.696 878.317 124.696C806.688 112.488 814.97 -0.950439 814.97 -0.950439H1372.79Z" fill="#00372D"/>
<path d="M1915.63 616.204L1913.98 640.665C1913.98 640.665 1918 636.649 1920.01 636.649C1922.01 636.649 1922.01 642.674 1922.01 642.674L1910.89 653.821V686.745H1910.73C1908.18 686.655 1905.65 686.587 1903.17 686.587C1903.24 684.172 1903.89 653.573 1901.95 650.685C1899.94 647.683 1895.93 638.657 1898.95 636.491C1901.95 634.324 1907.26 643.441 1907.26 643.441C1907.26 643.441 1907.53 636.852 1907.57 629.992C1907.59 625.569 1907.55 621.033 1907.26 618.099C1906.53 610.585 1898.95 589.508 1904.95 586.507C1910.96 583.506 1914.97 605.553 1914.97 605.553L1918.99 603.544C1923.01 601.536 1921.99 608.87 1921.99 608.87L1915.61 616.159L1915.63 616.204Z" fill="#0D2E27"/>
<path d="M1753.8 540.405C1751.02 548.416 1744.54 540.405 1741.14 536.817C1737.73 533.229 1735.52 528.355 1744.54 526.369C1753.57 524.383 1753.8 540.405 1753.8 540.405Z" fill="#64A82D"/>
<path d="M1173.61 55.8252L1169.01 622.229L1033.08 621.462H1111.42V87.4851C1111.42 87.4851 1170.68 72.0049 1173.61 55.8252Z" fill="#014335"/>
<path d="M1762.58 524.361C1765.34 524.361 1767.59 522.34 1767.59 519.848C1767.59 517.355 1765.34 515.334 1762.58 515.334C1759.81 515.334 1757.57 517.355 1757.57 519.848C1757.57 522.34 1759.81 524.361 1762.58 524.361Z" fill="#64A22E"/>
<path d="M1040.22 73.72L1033.08 621.462L935.502 620.92H958.973L968.022 87.756C968.022 87.756 1031.19 98.7907 1040.22 73.72Z" fill="#014335"/>
<path d="M1815.23 487.285C1819.94 487.285 1823.76 485.265 1823.76 482.772C1823.76 480.279 1819.94 478.259 1815.23 478.259C1810.51 478.259 1806.69 480.279 1806.69 482.772C1806.69 485.265 1810.51 487.285 1815.23 487.285Z" fill="#7FB037"/>
<path d="M1740.03 561.459C1743.07 561.459 1745.54 558.994 1745.54 555.953C1745.54 552.912 1743.07 550.447 1740.03 550.447C1736.99 550.447 1734.52 552.912 1734.52 555.953C1734.52 558.994 1736.99 561.459 1740.03 561.459Z" fill="#78B336"/>
<path d="M1830.75 504.322C1826.73 506.331 1821.72 504.322 1821.72 502.314C1821.72 500.306 1829.74 491.279 1834.95 487.285C1840.16 483.268 1847.81 489.293 1847.81 489.293C1848.81 494.303 1834.77 502.337 1830.77 504.322H1830.75Z" fill="#64A529"/>
<path d="M1560.03 687.986L1559.36 690.468C1553.49 691.597 1547.58 693.086 1541.64 694.936C1541.35 694.575 1534.4 686.045 1541.64 684.917C1547.67 683.969 1555.74 685.346 1560.03 687.986Z" fill="#0F683C"/>
<path d="M1266.52 622.771L1223.51 622.522C1222.79 607.177 1197.13 60.2707 1232.72 29.6036C1232.72 29.6036 1280.85 5.54839 1288.86 35.6287C1296.87 65.709 1266.54 622.771 1266.54 622.771H1266.52Z" fill="#014335"/>
<path d="M1595.22 687.693C1591.31 687.557 1587.38 687.535 1583.41 687.693C1583.41 687.693 1562.06 656.687 1578.11 655.694C1594.15 654.701 1595.22 687.693 1595.22 687.693Z" fill="#1F7747"/>
<path d="M1522.89 625.975C1519.48 629.179 1515.98 633.173 1512.44 638.138C1509.82 641.816 1507.61 645.562 1505.8 649.285C1496.17 636.378 1483.37 631.12 1479.51 625.975C1475.65 620.83 1479.35 621.101 1496.39 619.092C1513.21 617.106 1522.64 625.727 1522.89 625.975Z" fill="#004B20"/>
<path d="M1686.39 499.313C1623.04 581.723 1634.82 642.448 1656.51 680.156C1655.61 679.027 1637.8 656.98 1619.23 667.744C1601.44 678.034 1604.13 686.542 1621.94 690.897C1619.54 690.423 1617.13 689.994 1614.69 689.611C1614.69 689.611 1614.65 689.611 1614.58 689.611C1608.24 688.595 1601.78 687.963 1595.24 687.715C1595.24 687.715 1594.18 654.701 1578.13 655.717C1562.09 656.732 1583.44 687.715 1583.44 687.715C1576.46 687.986 1569.42 688.708 1562.29 689.949C1561.77 689.227 1561 688.595 1560.06 688.009L1576.1 628.389L1583.71 600.159L1595.6 555.975L1623.27 453.21L1614.71 455.535L1648.34 327.09L1603.88 343.202C1604.42 342.57 1621.44 322.509 1633.4 298.679C1638.59 288.321 1642.83 277.242 1644.32 266.726C1644.86 262.89 1645.7 258.467 1646.74 253.66C1646.99 252.487 1647.26 251.313 1647.53 250.095C1656.46 210.559 1677.43 148.436 1677.43 148.436C1677.43 148.436 1688.58 186.03 1703.2 228.025C1703.38 228.544 1703.56 229.041 1703.74 229.56C1707.17 239.399 1710.81 249.463 1714.51 259.324C1729.69 299.695 1746.3 336.59 1757.63 340.945L1725.54 329.91L1744.3 392.756L1762.64 454.271C1713.87 465.622 1686.46 499.335 1686.46 499.335L1686.39 499.313Z" fill="#002620"/>
<path d="M1576.06 628.367L1560.01 687.986C1555.72 685.346 1547.67 683.992 1541.62 684.917C1534.37 686.045 1541.32 694.575 1541.62 694.936C1528.62 699.021 1515.44 704.888 1502.19 712.854C1502.19 712.854 1490.3 681.126 1505.78 649.308C1507.59 645.585 1509.8 641.839 1512.42 638.161C1515.96 633.196 1519.46 629.202 1522.86 625.998C1543.22 606.929 1560.03 616.204 1560.57 616.497C1564.61 621.8 1569.85 626.155 1576.03 628.389L1576.06 628.367Z" fill="#045933"/>
<path d="M1583.66 576.398C1583.62 585.04 1579.6 581.024 1574.59 574.006C1569.58 566.988 1522.46 526.888 1484.36 548.935C1446.25 571.005 1437.24 617.107 1471.32 650.188L1493.39 674.266C1493.39 674.266 1486.17 691.845 1492.29 709.627C1496.48 712.583 1498.54 715.133 1498.54 715.133C1499.76 714.343 1500.97 713.598 1502.21 712.876C1502.21 712.876 1490.32 681.126 1505.8 649.308C1496.17 636.4 1483.35 631.143 1479.51 625.998C1475.65 620.853 1479.35 621.123 1496.39 619.115C1513.18 617.152 1522.64 625.749 1522.89 625.998H1522.91C1543.27 606.929 1560.06 616.204 1560.6 616.497L1556.67 610.382C1556.11 609.321 1555.56 608.238 1555.09 607.155C1554.62 606.049 1554.17 604.966 1553.78 603.86C1552.22 599.46 1551.39 595.037 1551.39 591.043C1551.39 590.344 1551.41 589.644 1551.46 588.99C1551.52 588.313 1551.59 587.658 1551.71 587.004C1551.8 586.372 1551.93 585.74 1552.09 585.153C1552.25 584.544 1552.43 583.957 1552.63 583.416C1553.49 581.204 1554.77 579.354 1556.53 578.022C1568.59 568.996 1583.66 600.16 1583.66 600.16L1595.55 555.953C1595.55 555.953 1583.71 567.778 1583.66 576.398ZM1489.37 551.959C1489.37 551.959 1481.34 563.987 1467.3 583.032C1453.27 602.078 1464.3 630.15 1464.3 630.15C1464.3 630.15 1466.2 637.642 1457.24 628.39C1448.26 619.115 1451.28 585.041 1462.29 571.005C1473.33 556.969 1492.38 542.933 1489.37 551.959Z" fill="#05743F"/>
<path d="M1583.66 600.137L1576.06 628.367C1569.87 626.133 1564.64 621.778 1560.6 616.497C1550.58 603.341 1547.98 584.454 1556.56 578C1568.59 568.974 1583.68 600.137 1583.68 600.137H1583.66Z" fill="#13844E"/>
<path d="M1646.67 253.638C1645.63 258.467 1644.82 262.867 1644.25 266.704C1642.74 277.219 1638.52 288.299 1633.33 298.657C1612.34 312.377 1594.09 328.534 1582.6 347.399C1582.6 347.399 1574.59 363.444 1571.56 363.444C1568.54 363.444 1564.55 357.825 1571.56 338.576C1578.58 319.327 1615.68 270.201 1643.76 255.172C1644.68 254.676 1645.65 254.157 1646.67 253.638Z" fill="#B6D74F"/>
<path d="M1783.13 237.142C1773.16 240.324 1746.08 247.477 1714.44 259.279C1710.74 249.418 1707.1 239.376 1703.67 229.515C1730.69 221.369 1762.53 216.855 1795.16 224.099C1795.16 224.099 1808.21 229.109 1783.13 237.142Z" fill="#B6D74F"/>
<path d="M1870.36 398.556C1861.33 385.513 1859.32 385.513 1860.34 381.519C1861.35 377.525 1859.34 372.492 1865.35 375.494C1865.35 375.494 1885.12 391.312 1886.27 397.947C1887.42 404.581 1879.38 411.599 1870.36 398.556Z" fill="#1D6F45"/>
<path d="M1349.98 673.057L1348.44 678.97L1273.69 963.99C1265.02 971.596 1254.5 981.024 1254.5 981.024C1254.5 981.024 1228.33 947.931 1166 954.024C1103.69 960.118 1091.56 1039.35 1091.56 1039.35C1034.53 1037.63 1015.21 1069.45 1010.66 1079.23C1010.66 1079.23 1010.66 1079.23 1010.66 1079.25C1010.48 1079.59 1010.34 1079.9 1010.21 1080.2C1009.71 1081.35 1009.48 1082.02 1009.48 1082.02H920.956L904.621 1028.18L888.038 1082.02H868.988L848.332 1012.94L875.187 1024L875.459 1024.11L875.414 1023.98L802.089 788.361L800.844 795.718L775.189 947.492L752.429 1082.02C752.429 1082.02 751.32 1082.02 749.171 1082C745.393 1082 738.447 1081.96 728.764 1081.91C691.411 1081.75 613.471 1081.42 521.821 1081.03H519.966C457.885 1080.76 389.606 1080.47 323.407 1080.2C311.552 1080.15 299.788 1080.11 288.114 1080.06C281.824 1080.02 275.557 1079.99 269.336 1079.97C259.087 1079.93 248.974 1079.88 238.997 1079.86C199.586 1079.68 162.414 1079.54 129.519 1079.41C117.55 1079.36 106.148 1079.32 95.424 1079.27C47.2346 1079.09 12.4614 1078.98 -0.0045383 1078.98H-1V613.024H54.3839L275.15 613.137H294.381L294.426 613.16L405.307 613.205H453.089L469.537 613.228H521.708L527.16 613.273H585.169L603.019 613.295H652.656L652.769 613.318L717.158 613.679L765.144 613.95L798.378 614.13L828.446 614.311L872.269 614.559L906.363 614.74L933.196 614.898H937.698L937.856 614.92L961.498 615.056H962.222L990.276 615.214L1018.87 615.394L1035.68 615.484H1035.77L1114.19 615.936L1171.95 616.252H1172.08L1226.31 616.884H1226.61C1226.61 616.884 1226.61 616.771 1226.61 616.545L1269.73 616.793H1270.07L1300.7 616.974L1348.17 617.245L1346.36 623.406L1329.8 679.489L1331.56 678.925L1350 673.057H1349.98Z" fill="#036937"/>
<path d="M1567.68 435.609C1454.51 444.613 1446.25 533.884 1443.74 540.405C1441.24 546.927 1440.58 535.012 1440.58 535.012C1454.98 448.923 1503.39 429.607 1541.51 418.595C1579.62 407.582 1593.93 419.429 1593.93 419.429L1614.69 436.625C1619.7 440.641 1567.68 435.587 1567.68 435.587V435.609Z" fill="#8AC969"/>
<path d="M1537.49 516.846C1518.44 524.857 1528.6 470.97 1530.54 466.84C1532.48 462.711 1539.18 428.523 1551.37 446.621C1551.37 446.621 1556.53 508.835 1537.49 516.846Z" fill="#1CA959"/>
<path d="M1599.66 527.881C1598.67 531.898 1579.6 556.946 1579.08 524.383C1578.56 491.798 1610.67 469.751 1610.67 469.751C1622.7 459.732 1600.65 523.887 1599.64 527.904L1599.66 527.881Z" fill="#0B9351"/>
<path d="M1489.37 551.936C1489.37 551.936 1481.36 563.964 1467.33 583.01C1453.29 602.055 1464.32 630.127 1464.32 630.127C1464.32 630.127 1466.22 637.619 1457.26 628.367C1448.28 619.092 1451.3 585.018 1462.32 570.982C1473.35 556.946 1492.4 542.91 1489.4 551.936H1489.37Z" fill="#2B8F59"/>
<path d="M744.334 1024.38C736.706 1020.88 728.853 1018.28 720.886 1016.46C720.458 1016.32 720.006 1016.23 719.555 1016.14C653.139 1001.38 580.517 1037.67 580.517 1037.67L545.425 1008.9V985.54C545.425 985.54 551.428 891.305 479.257 855.222C407.064 819.116 347.915 848.204 347.915 848.204C347.915 848.204 338.685 825.638 314.718 809.864C306.526 804.449 296.596 799.845 284.749 797.205C282.785 796.776 280.777 796.392 278.723 796.077C278.723 796.077 282.289 762.138 270.847 726.935C262.678 701.864 246.903 676.139 216.776 661.606C214.948 660.704 213.12 659.869 211.314 659.079C198.067 653.189 185.429 649.421 173.627 647.187C165.638 645.652 158.033 644.817 150.901 644.524C113.033 642.877 88.2315 655.717 88.2315 655.717C88.2315 655.717 84.4402 645.562 75.3004 633.557C73.2694 630.894 70.99 628.164 68.4174 625.411C66.7474 623.606 64.942 621.823 63.0012 620.04C60.3382 617.58 57.427 615.166 54.245 612.864C52.6653 611.713 51.0404 610.608 49.3253 609.524C42.9162 605.485 35.6043 601.965 27.277 599.437C25.4716 598.896 22.7183 598.354 19.5815 597.88C12.879 596.842 4.46131 596.007 -0.00703394 595.556L-0.255275 612.842L-0.322978 618.731L-0.39068 622.68L-1 666.729L-0.00703394 1030.65V1079.77H95.4305L95.1823 1079.03C105.879 1079.08 117.253 1079.12 129.191 1079.17L128.853 1080.29H238.598L238.734 1080.79H520.51C611.931 1081.17 689.676 1081.51 726.934 1081.67C726.912 1081.72 726.867 1081.76 726.844 1081.78H747.29L750.946 1059.74V1027.65C748.757 1026.47 746.568 1025.39 744.334 1024.38ZM149.389 761.98C143.386 763.988 138.354 749.952 137.88 729.372C137.383 708.792 153.406 710.845 153.406 710.845C176.47 713.869 155.415 759.971 149.389 761.98ZM146.884 805.802C156.408 803.095 167.443 797.07 169.452 794.068C171.438 791.044 175.455 779.017 182.473 787.05C182.473 787.05 180.487 823.02 150.901 824.6C121.315 826.134 137.383 808.555 146.884 805.802ZM202.152 748.395C202.152 748.395 201.971 748.305 201.881 748.259C201.768 748.192 201.678 748.124 201.61 748.056C199.692 746.161 202.535 742.934 202.535 742.934L205.086 741.241L207.342 739.73L217.565 732.915C223.591 728.898 225.599 731.899 226.592 733.908C227.585 735.916 224.584 738.917 218.581 742.934C217.52 743.633 216.392 744.31 215.196 744.92C214.79 745.123 214.406 745.326 214 745.529C212.397 746.319 210.75 746.973 209.215 747.492H209.193C208.132 747.853 207.139 748.147 206.214 748.327C205.875 748.417 205.537 748.463 205.221 748.508C205.198 748.53 205.176 748.53 205.131 748.53C204.95 748.553 204.792 748.575 204.634 748.598C204.341 748.598 204.07 748.643 203.799 748.643C203.461 748.643 203.145 748.621 202.874 748.575C202.603 748.553 202.355 748.485 202.152 748.395ZM209.103 752.886L209.622 752.366C209.825 752.186 210.028 752.028 210.254 751.825C210.276 751.825 210.299 751.802 210.321 751.78C211.021 751.216 211.924 750.584 213.007 749.884C214.022 749.23 215.218 748.485 216.527 747.695C217.656 746.973 218.919 746.206 220.251 745.394C221.041 744.897 221.898 744.378 222.756 743.837C223.185 743.566 223.613 743.295 224.065 743.002C224.945 742.46 225.848 741.873 226.773 741.264C236.996 734.585 238.621 741.918 238.621 741.918C240.629 747.944 215.557 757.963 213.864 758.346C213.751 758.346 213.639 758.392 213.503 758.392C213.368 758.392 213.232 758.369 213.097 758.346C212.962 758.324 212.804 758.279 212.646 758.234C212.51 758.188 212.352 758.121 212.194 758.053C212.036 757.985 211.901 757.918 211.743 757.85H211.72C211.72 757.85 211.608 757.76 211.562 757.737C211.224 757.534 210.885 757.308 210.547 757.038C210.366 756.902 210.186 756.744 210.028 756.564C209.509 756.09 209.08 755.548 208.809 755.007C208.742 754.849 208.674 754.713 208.651 754.555C208.561 754.352 208.538 754.149 208.538 753.969C208.538 753.653 208.742 753.292 209.103 752.886ZM93.2415 749.952C93.2415 749.952 83.2216 720.887 98.2515 722.873C98.2515 722.873 127.815 731.29 128.086 762.16C128.334 793.053 93.2415 749.952 93.2415 749.952Z" fill="#6DB33A"/>
<path d="M149.389 761.98C143.364 763.988 138.354 749.952 137.88 729.372C137.383 708.792 153.406 710.845 153.406 710.845C176.47 713.847 155.415 759.971 149.389 761.98Z" fill="#87C73B"/>
<path d="M128.086 762.16C128.356 793.053 93.264 749.929 93.264 749.929C93.264 749.929 83.2441 720.864 98.274 722.85C98.274 722.85 127.837 731.245 128.086 762.137V762.16Z" fill="#79C03D"/>
<path d="M182.473 787.028C182.473 787.028 180.487 822.998 150.901 824.577C121.315 826.134 137.383 808.533 146.884 805.802C156.408 803.072 167.421 797.069 169.429 794.046C171.438 791.022 175.455 779.017 182.473 787.028Z" fill="#43A235"/>
<path d="M218.581 742.911C212.555 746.928 203.551 749.929 201.633 748.034C199.714 746.138 202.535 742.911 202.535 742.911L217.565 732.892C223.591 728.875 225.577 731.899 226.592 733.885C227.608 735.871 224.584 738.895 218.581 742.911Z" fill="#4D9C2D"/>
<path d="M213.864 758.346C212.172 758.73 208.561 755.955 208.561 753.946C208.561 751.938 216.572 747.921 226.796 741.264C237.019 734.585 238.643 741.918 238.643 741.918C240.652 747.944 215.58 757.963 213.887 758.346H213.864Z" fill="#489E2F"/>
<path d="M351.413 850.686C351.413 850.686 402.054 824.126 477.248 855.199C477.248 855.199 537.323 877.562 541.633 987.932C541.633 987.932 539.986 1001.92 538.451 991.971C536.917 982.02 525.385 880.27 481.265 863.21C440.983 847.64 425.614 835.635 358.454 852.694C358.454 852.694 347.418 856.711 351.435 850.686H351.413Z" fill="#E5FFC3"/>
<path d="M89.9692 657.454C89.9692 657.454 113.958 643.825 162.501 647.503C211.043 651.181 263.919 688.347 272.585 738.443C281.228 788.517 275.473 794.497 275.473 794.497C275.473 794.497 273.013 795.242 273.623 785.877C274.232 776.512 273.736 742.528 266.965 726.935C260.195 711.342 214.744 625.636 102.11 657.454C102.11 657.454 87.216 663.728 89.9918 657.454H89.9692Z" fill="#E5FFC3"/>
<path d="M1368.28 792.037L1361.58 788.968C1360.69 786.847 1360.22 785.719 1360.22 785.719L1310.93 945.124C1305.99 945.44 1301.03 946.749 1296.27 948.69L1357.15 753.698L1368.3 792.037H1368.28Z" fill="#0DA775"/>
<path d="M1639.04 69.6581L1624.24 266.41C1595.73 289.856 1552.02 338.756 1559.33 414.059C1559.33 414.059 1552.29 413.991 1541.55 416.022C1542 398.917 1544.98 302.651 1555.25 291.977C1566.55 280.265 1590.48 246.168 1589.05 228.116C1587.61 210.063 1589.66 156.875 1596.66 148.864C1603.66 140.876 1611.33 69.6355 1611.33 69.6355C1611.33 69.6355 1614.69 62.6853 1620.69 72.7045C1626.7 82.7238 1639.04 69.6355 1639.04 69.6355V69.6581Z" fill="#014335"/>
<path d="M1486.37 57.6983L1475.63 449.916C1454.69 470.789 1437.4 503.781 1434.94 555.953C1434.94 555.953 1429.23 77.7368 1427.04 69.6582C1424.85 61.5571 1444.26 54.6971 1464.32 48.672C1484.39 42.6469 1486.37 57.6983 1486.37 57.6983Z" fill="#014335"/>
<path d="M1090.34 1043.17C1090.34 1043.17 1047.23 1039.16 1022.16 1067.23C1022.16 1067.23 1013.13 1074.25 1015.14 1071.25C1017.15 1068.24 1037.19 1038.16 1089.34 1041.16L1090.34 1043.17Z" fill="#E5FFC3"/>
<path d="M1253.75 981.026C1253.75 981.026 1205.63 951.962 1178.55 954.963C1151.47 957.964 1106.36 979.018 1097.33 1021.13C1097.33 1021.13 1095.32 1020.13 1096.34 1017.11C1097.36 1014.09 1108.37 972 1149.49 957.964C1190.6 943.928 1240.73 964.982 1252.75 978.025C1252.75 978.025 1255.76 980.034 1253.75 981.026Z" fill="#DFFAB6"/>
<path d="M95.1823 1079.03L95.4305 1079.77H-0.00708008V612.48L0.105757 612.842L1.88858 618.957L2.85898 622.251L108.294 981.546L61.1506 973.512L70.155 1001.4L86.8098 1053.06L95.1823 1079.03Z" fill="#011C1A"/>
<path d="M454.681 1020.2C446.557 1018.64 438.094 1017.43 429.293 1016.59C428.819 1015.69 397.518 958.348 330.854 943.432C263.671 928.403 231.715 965.185 231.715 965.185L224.516 935.421C224.516 935.421 285.742 883.294 370.956 916.375C456.171 949.457 454.681 1020.22 454.681 1020.22V1020.2Z" fill="#BBDA49"/>
<path d="M429.293 1016.61C426.472 1016.34 423.628 1016.12 420.74 1015.94C351.367 1011.56 294.926 1071.45 287.389 1079.82C286.825 1080.45 286.531 1080.79 286.531 1080.79H238.733L238.598 1080.29L238.395 1079.62L219.574 1012.62L245.639 1022.64L231.738 965.185C231.738 965.185 240.268 955.369 257.758 947.968C274.142 941.017 298.379 936.166 330.854 943.432C397.518 958.348 428.819 1015.71 429.293 1016.61Z" fill="#166C1B"/>
<path d="M567.022 1080.79H518.66C518.66 1080.79 466.213 1034.67 405.055 1046.69C351.006 1057.32 327.356 1075.8 322.594 1079.96C321.962 1080.5 321.669 1080.79 321.669 1080.79H286.531C286.531 1080.79 286.825 1080.45 287.389 1079.82C294.926 1071.45 351.367 1011.56 420.74 1015.94C423.628 1016.12 426.472 1016.34 429.293 1016.61C438.094 1017.45 446.557 1018.67 454.681 1020.22C503.427 1029.57 539.534 1050.98 559.033 1071.29C562.124 1074.49 564.787 1077.68 567.022 1080.79Z" fill="#B6D842"/>
<path d="M518.66 1080.79H321.669C321.669 1080.79 321.962 1080.5 322.594 1079.96C327.356 1075.8 351.007 1057.32 405.056 1046.69C466.213 1034.67 518.66 1080.79 518.66 1080.79Z" fill="#21791B"/>
<path d="M454.681 1022.82C454.681 1022.82 531.094 1040.13 562.576 1079.26C562.576 1079.26 559.958 1080.27 552.94 1073.25C545.921 1066.24 508.865 1037.17 457.209 1027.65C457.209 1027.65 447.663 1025.53 454.681 1022.82Z" fill="#E5FFC3"/>
<path d="M229.165 935.918C229.165 935.918 275.225 896.811 355.43 913.871C435.634 930.908 449.536 1010.61 449.536 1010.61C449.536 1010.61 447.663 1013.12 444.661 1006.1C441.66 999.079 425.682 932.916 355.452 916.872C285.223 900.828 231.738 939.821 231.738 939.821C231.738 939.821 225.216 942.936 229.165 935.918Z" fill="#E5FFC3"/>
<path d="M268.658 1079.73L268.816 1080.29H128.853L129.191 1079.17L132.351 1068.38L143.928 1029.05L155.415 990.053L128.853 994.228L202.874 748.575L205.085 741.241L206.53 736.412L207.342 739.73L209.215 747.492L210.253 751.825L211.72 757.827L250.852 919.489L251.642 922.739L252.928 928.064L254.598 934.924L257.758 947.968L261.82 964.689L275.721 1022.14L249.656 1012.12L268.658 1079.73Z" fill="#001E1D"/>
<path d="M849.949 1016.86L866.807 1081.78H726.844C726.844 1081.78 726.912 1081.72 726.934 1081.67C728.695 1079.03 738.827 1043.85 744.334 1024.38C746.5 1016.79 747.945 1011.6 747.945 1011.6L721.676 1016.3L720.886 1016.46L719.352 1016.73L719.555 1016.14L736.638 968.638L750.54 929.915L798.834 795.512L800.075 792.06L872.9 1023.52L872.991 1023.77L873.261 1024.65L849.949 1016.86Z" fill="#013329"/>
<path d="M921.15 1083.02H883.033L902.08 1020.86L921.15 1083.02Z" fill="#00372D"/>
<path d="M718.607 723.46C718.607 723.46 730.477 634.866 821.808 683.721C821.808 683.721 772.949 612.029 810.389 570.012C847.828 527.994 911.761 605.169 914.492 646.736C914.492 646.736 949.652 561.324 988.919 569.56C1028.19 577.774 1024.98 645.382 982.081 685.549C982.081 685.549 1106.27 620.695 1109.02 723.46H718.63H718.607Z" fill="#73B534"/>
<path d="M738.241 723.46C738.241 723.46 767.465 672.777 844.398 712.493C844.398 712.493 818.626 638.499 828.081 604.018C837.537 569.538 894.159 630.737 906.029 677.087C906.029 677.087 941.415 620.446 975.198 605.395C1008.98 590.344 965.156 691.033 954.662 711.568C954.662 711.568 1086.39 646.262 1092.55 723.437H738.218L738.241 723.46Z" fill="#1C9147"/>
<path d="M622.402 782.492H622.357C530.846 830.422 433.535 787.524 431.03 786.373C426.855 774.616 424.554 760.738 428.593 747.379C438.252 715.539 496.34 735.668 511.935 768.907C511.325 767.147 506.157 751.554 521.639 742.618C538.023 733.185 543.123 769.404 543.123 769.404C543.123 769.404 553.165 738.443 586.633 727.521C619.378 716.87 632.67 763.559 622.38 782.492H622.402Z" fill="#229336"/>
<path d="M622.357 782.492C622.131 782.943 621.906 783.372 621.635 783.778C609.967 801.808 600.151 816.047 600.151 816.047H446.625C445.97 814.987 436.74 802.734 431.031 786.373C433.535 787.524 530.846 830.422 622.357 782.492Z" fill="#4AA738"/>
<path d="M750.54 929.915L800.82 783.259L876.015 1025.89L750.54 929.915Z" fill="#013329"/>
</g>
</g>
<defs>
<clipPath id="clip0_17_3625">
<rect width="1922.04" height="1078.31" fill="white" transform="translate(0.939697 0.184082)"/>
</clipPath>
</defs>
</svg>
